<?xml version="1.0" standalone="no"?>
<!DOCTYPE svg PUBLIC "-//W3C//DTD SVG 20010904//EN"
 "http://www.w3.org/TR/2001/REC-SVG-20010904/DTD/svg10.dtd">
<svg version="1.0" xmlns="http://www.w3.org/2000/svg"
 width="840.000000pt" height="980.000000pt" viewBox="0 0 840.000000 980.000000"
 preserveAspectRatio="xMidYMid meet">

<g transform="translate(0.000000,980.000000) scale(0.100000,-0.100000)"
fill="#000000" stroke="none">
<path d="M3943 9790 c-866 -84 -1634 -523 -2143 -1225 -268 -370 -443 -797
-522 -1275 -18 -107 -21 -182 -25 -516 l-5 -391 -121 -6 c-142 -7 -243 -25
-351 -61 -330 -111 -601 -381 -711 -710 -63 -186 -58 -64 -62 -1876 -4 -1680
-1 -1900 33 -2130 52 -357 154 -648 311 -885 84 -126 273 -317 393 -397 230
-152 478 -241 829 -295 96 -15 337 -17 2531 -21 1644 -2 2471 0 2567 7 726 55
1217 350 1488 896 139 282 208 567 235 970 14 215 14 3336 0 3460 -58 505
-426 907 -919 1001 -42 8 -131 17 -198 21 l-123 6 0 327 c0 343 -7 459 -41
650 -106 607 -383 1143 -819 1581 -241 243 -456 402 -744 550 -303 156 -594
249 -931 299 -160 24 -520 34 -672 20z m458 -730 c652 -66 1231 -422 1611
-990 136 -204 266 -511 319 -752 40 -184 50 -288 56 -615 l6 -323 -2193 0
-2193 0 6 308 c3 169 11 345 17 392 70 539 300 1005 676 1370 250 242 505 399
831 511 267 91 582 127 864 99z m2839 -3461 c174 -40 328 -194 376 -374 11
-41 14 -353 14 -1676 0 -1074 -4 -1663 -11 -1735 -21 -216 -79 -444 -147 -579
-141 -279 -367 -433 -752 -512 -79 -16 -256 -17 -2450 -21 -1680 -2 -2397 0
-2474 8 -491 50 -782 253 -922 645 -42 117 -79 300 -93 455 -7 75 -11 684 -11
1740 0 1377 2 1633 15 1679 46 174 189 318 365 367 59 16 6019 19 6090 3z"/>
<path d="M4135 4684 c-273 -39 -486 -194 -610 -443 -56 -113 -76 -203 -77
-361 -1 -111 2 -150 21 -220 35 -131 101 -250 188 -336 l72 -72 3 -593 3 -594
31 -65 c53 -111 122 -175 239 -220 84 -32 215 -33 300 -2 126 47 226 144 277
270 23 57 23 58 26 630 l3 573 92 92 c127 127 196 250 233 413 24 111 16 291
-20 399 -100 307 -358 509 -676 528 -41 3 -88 3 -105 1z"/>
</g>
</svg>
